<?xml version="1.0" encoding="UTF-8" standalone="no"?>
<svg
   viewBox="0 0 512 512"
   version="1.1"
   id="svg135"
   sodipodi:docname="add-to-top.svg"
   width="512"
   height="512"
   inkscape:version="1.2 (dc2aedaf03, 2022-05-15)"
   xmlns:inkscape="http://www.inkscape.org/namespaces/inkscape"
   xmlns:sodipodi="http://sodipodi.sourceforge.net/DTD/sodipodi-0.dtd"
   xmlns="http://www.w3.org/2000/svg"
   xmlns:svg="http://www.w3.org/2000/svg">
  <defs
     id="defs139" />
  <sodipodi:namedview
     id="namedview137"
     pagecolor="#ffffff"
     bordercolor="#666666"
     borderopacity="1.0"
     inkscape:showpageshadow="2"
     inkscape:pageopacity="0.0"
     inkscape:pagecheckerboard="0"
     inkscape:deskcolor="#d1d1d1"
     showgrid="false"
     inkscape:zoom="0.70917838"
     inkscape:cx="-43.007515"
     inkscape:cy="260.16021"
     inkscape:window-width="2560"
     inkscape:window-height="1377"
     inkscape:window-x="1072"
     inkscape:window-y="476"
     inkscape:window-maximized="1"
     inkscape:current-layer="svg135" />
  <!--! Font Awesome Free 6.2.1 by @fontawesome - https://fontawesome.com License - https://fontawesome.com/license/free (Icons: CC BY 4.0, Fonts: SIL OFL 1.1, Code: MIT License) Copyright 2022 Fonticons, Inc. -->
  <g
     id="g1571">
    <path
       d="M 240,32 C 240,14.3 225.7,0 208,0 190.3,0 176,14.3 176,32 V 176 H 32 c -17.7,0 -32,14.3 -32,32 0,17.7 14.3,32 32,32 h 144 v 144 c 0,17.7 14.3,32 32,32 17.7,0 32,-14.3 32,-32 V 240 h 144 c 17.7,0 32,-14.3 32,-32 0,-17.7 -14.3,-32 -32,-32 H 240 Z"
       id="path133" />
    <path
       fill="currentColor"
       d="m 508.46607,412.56315 -96.16,96.16 c -4.686,4.687 -12.285,4.686 -16.97,0 l -96.156,-96.156 c -7.536,-7.536 -2.198,-20.484 8.485,-20.485 l 68.161,-0.002 v -131.843 c 29.34033,-0.23216 29.1868,-0.0549 56,0 v 131.842 l 68.154,-0.001 c 10.626,-10e-4 16.066,12.905 8.486,20.485 z"
       class=""
       id="path2"
       sodipodi:nodetypes="sccsccccccs" />
  </g>
</svg>
