<?xml version="1.0" encoding="UTF-8" standalone="no"?>
<svg
   viewBox="0 0 512 512"
   version="1.1"
   id="svg4"
   sodipodi:docname="add-to-top.svg"
   inkscape:version="1.2 (dc2aedaf03, 2022-05-15)"
   xmlns:inkscape="http://www.inkscape.org/namespaces/inkscape"
   xmlns:sodipodi="http://sodipodi.sourceforge.net/DTD/sodipodi-0.dtd"
   xmlns="http://www.w3.org/2000/svg"
   xmlns:svg="http://www.w3.org/2000/svg">
  <defs
     id="defs8" />
  <sodipodi:namedview
     id="namedview6"
     pagecolor="#ffffff"
     bordercolor="#666666"
     borderopacity="1.0"
     inkscape:showpageshadow="2"
     inkscape:pageopacity="0.0"
     inkscape:pagecheckerboard="0"
     inkscape:deskcolor="#d1d1d1"
     showgrid="true"
     inkscape:zoom="0.25073242"
     inkscape:cx="-2377.036"
     inkscape:cy="-915.31841"
     inkscape:window-width="2560"
     inkscape:window-height="1377"
     inkscape:window-x="1072"
     inkscape:window-y="461"
     inkscape:window-maximized="1"
     inkscape:current-layer="g592" />
  <!--! Font Awesome Free 6.3.0 by @fontawesome - https://fontawesome.com License - https://fontawesome.com/license/free (Icons: CC BY 4.0, Fonts: SIL OFL 1.1, Code: MIT License) Copyright 2023 Fonticons, Inc. -->
  <g
     id="g592">
    <path
       id="path2"
       d="m 441.15625,32.119141 c -13.29999,0 -16,10.700013 -16,24 V 72 H 410 c -13.29999,0 -24,2.700013 -24,16 v 16 c 0,13.29999 10.70001,16 24,16 h 15.15625 v 14.11914 c 0,13.29999 2.70001,24 16,24 h 16 c 13.29999,0 16,-10.70001 16,-24 V 120 H 488 c 13.29999,0 24,-2.70001 24,-16 V 88 C 512,74.700013 501.29999,72 488,72 H 473.15625 V 56.119141 c 0,-13.299987 -2.70001,-24 -16,-24 z M 40,48 C 26.700013,48 16,58.700013 16,72 v 48 c 0,13.29999 10.700013,24 24,24 h 48 c 13.29999,0 24,-10.70001 24,-24 V 72 C 112,58.700013 101.29999,48 88,48 Z m 152,16 c -17.69998,0 -32,14.300018 -32,32 0,17.69998 14.30002,32 32,32 h 128 c 17.69998,0 32,-14.30002 32,-32 0,-17.699982 -14.30002,-32 -32,-32 z M 40,208 c -13.299987,0 -24,10.70001 -24,24 v 48 c 0,13.29999 10.700013,24 24,24 h 48 c 13.29999,0 24,-10.70001 24,-24 v -48 c 0,-13.29999 -10.70001,-24 -24,-24 z m 152,16 c -17.69998,0 -32,14.30002 -32,32 0,17.69998 14.30002,32 32,32 h 288 c 17.69998,0 32,-14.30002 32,-32 0,-17.69998 -14.30002,-32 -32,-32 z M 40,368 c -13.299987,0 -24,10.70001 -24,24 v 48 c 0,13.29999 10.700013,24 24,24 h 48 c 13.29999,0 24,-10.70001 24,-24 v -48 c 0,-13.29999 -10.70001,-24 -24,-24 z m 152,16 c -17.69998,0 -32,14.30002 -32,32 0,17.69998 14.30002,32 32,32 h 288 c 17.69998,0 32,-14.30002 32,-32 0,-17.69998 -14.30002,-32 -32,-32 z"
       sodipodi:nodetypes="sscsssscsssscsssscsssssssssssssssssssssssssssssssssssssssssssssssssss" />
  </g>
</svg>
