<?xml version="1.0" encoding="UTF-8" standalone="no"?>
<svg
   viewBox="0 0 512 512"
   version="1.1"
   id="svg135"
   sodipodi:docname="add-to-bottom.svg"
   width="512"
   height="512"
   inkscape:version="1.2 (dc2aedaf03, 2022-05-15)"
   xmlns:inkscape="http://www.inkscape.org/namespaces/inkscape"
   xmlns:sodipodi="http://sodipodi.sourceforge.net/DTD/sodipodi-0.dtd"
   xmlns="http://www.w3.org/2000/svg"
   xmlns:svg="http://www.w3.org/2000/svg">
  <defs
     id="defs139" />
  <sodipodi:namedview
     id="namedview137"
     pagecolor="#ffffff"
     bordercolor="#666666"
     borderopacity="1.0"
     inkscape:showpageshadow="2"
     inkscape:pageopacity="0.0"
     inkscape:pagecheckerboard="0"
     inkscape:deskcolor="#d1d1d1"
     showgrid="false"
     inkscape:zoom="1.0029297"
     inkscape:cx="-155.04576"
     inkscape:cy="351.4703"
     inkscape:window-width="2560"
     inkscape:window-height="1377"
     inkscape:window-x="1072"
     inkscape:window-y="476"
     inkscape:window-maximized="1"
     inkscape:current-layer="svg135" />
  <!--! Font Awesome Free 6.2.1 by @fontawesome - https://fontawesome.com License - https://fontawesome.com/license/free (Icons: CC BY 4.0, Fonts: SIL OFL 1.1, Code: MIT License) Copyright 2022 Fonticons, Inc. -->
  <path
     d="m 161.9262,373.64385 c 0,11.83123 -9.55856,21.38979 -21.38979,21.38979 -11.83123,0 -21.38979,-9.55856 -21.38979,-21.38979 V 277.38979 H 22.892555 c -11.831229,0 -21.3897917,-9.55856 -21.3897917,-21.38979 0,-11.83123 9.5585627,-21.38979 21.3897917,-21.38979 h 96.254065 v -96.25406 c 0,-11.83123 9.55856,-21.38979 21.38979,-21.38979 11.83123,0 21.38979,9.55856 21.38979,21.38979 v 96.25406 h 96.25406 c 11.83123,0 21.38979,9.55856 21.38979,21.38979 0,11.83123 -9.55856,21.38979 -21.38979,21.38979 H 161.9262 Z"
     id="path133"
     style="fill:#000000;fill-opacity:1;stroke-width:0.999999" />
  <path
     fill="currentColor"
     d="m 507.13379,384.00374 -78.7385,78.73848 c -3.83705,3.83787 -10.05931,3.83705 -13.89552,0 l -78.73523,-78.73521 c -6.17067,-6.17068 -1.79976,-16.77286 6.94777,-16.77368 l 55.81214,-0.002 V 92.23404 H 316.64166 A 9.8226602,9.8226602 0 0 1 309.6939,89.355872 L 283.4914,63.153381 c -6.19033,-6.189518 -1.80633,-16.773696 6.94776,-16.773696 h 134.28778 c 10.85357,0 19.65186,8.798317 19.65186,19.651863 V 367.23085 l 55.80639,-7.9e-4 c 8.70087,-8.2e-4 13.1553,10.56695 6.9486,16.77368 z"
     class=""
     id="path2"
     style="fill:#000000;fill-opacity:1;stroke-width:0.999998" />
</svg>
