<?xml version="1.0" encoding="UTF-8" standalone="no"?>
<svg
   width="128"
   height="128"
   version="1.1"
   id="svg1201"
   sodipodi:docname="papercat-gray-icon.svg"
   inkscape:version="1.2 (dc2aedaf03, 2022-05-15)"
   viewBox="30 30 1088.001 1088.001"
   inkscape:export-filename="papercat-gray-icon.svg"
   inkscape:export-xdpi="96"
   inkscape:export-ydpi="96"
   xmlns:inkscape="http://www.inkscape.org/namespaces/inkscape"
   xmlns:sodipodi="http://sodipodi.sourceforge.net/DTD/sodipodi-0.dtd"
   xmlns="http://www.w3.org/2000/svg"
   xmlns:svg="http://www.w3.org/2000/svg"
   xmlns:rdf="http://www.w3.org/1999/02/22-rdf-syntax-ns#"
   xmlns:cc="http://creativecommons.org/ns#"
   xmlns:dc="http://purl.org/dc/elements/1.1/">
  <metadata
     id="metadata1207">
    <rdf:RDF>
      <cc:Work
         rdf:about="">
        <dc:format>image/svg+xml</dc:format>
        <dc:type
           rdf:resource="http://purl.org/dc/dcmitype/StillImage" />
      </cc:Work>
    </rdf:RDF>
  </metadata>
  <defs
     id="defs1205">
    <linearGradient
       id="linearGradient8937"
       inkscape:swatch="solid">
      <stop
         style="stop-color:#000000;stop-opacity:1;"
         offset="0"
         id="stop8935" />
    </linearGradient>
    <filter
       style="color-interpolation-filters:sRGB"
       inkscape:label="Greyscale"
       id="filter8541">
      <feColorMatrix
         values="-10 -10 -10 5 0 -10 -10 -10 5 0 -10 -10 -10 5 0 0 0 0 1 0 "
         id="feColorMatrix8539" />
    </filter>
    <filter
       style="color-interpolation-filters:sRGB"
       inkscape:label="Greyscale"
       id="filter8545">
      <feColorMatrix
         values="-10 -10 -10 5 0 -10 -10 -10 5 0 -10 -10 -10 5 0 0 0 0 1 0 "
         id="feColorMatrix8543" />
    </filter>
    <filter
       style="color-interpolation-filters:sRGB"
       inkscape:label="Greyscale"
       id="filter8549">
      <feColorMatrix
         values="-10 -10 -10 5 0 -10 -10 -10 5 0 -10 -10 -10 5 0 0 0 0 1 0 "
         id="feColorMatrix8547" />
    </filter>
    <filter
       style="color-interpolation-filters:sRGB"
       inkscape:label="Greyscale"
       id="filter8553">
      <feColorMatrix
         values="-10 -10 -10 5 0 -10 -10 -10 5 0 -10 -10 -10 5 0 0 0 0 1 0 "
         id="feColorMatrix8551" />
    </filter>
    <filter
       style="color-interpolation-filters:sRGB"
       inkscape:label="Greyscale"
       id="filter8557">
      <feColorMatrix
         values="-10 -10 -10 5 0 -10 -10 -10 5 0 -10 -10 -10 5 0 0 0 0 1 0 "
         id="feColorMatrix8555" />
    </filter>
    <filter
       style="color-interpolation-filters:sRGB"
       inkscape:label="Greyscale"
       id="filter8561">
      <feColorMatrix
         values="-10 -10 -10 5 0 -10 -10 -10 5 0 -10 -10 -10 5 0 0 0 0 1 0 "
         id="feColorMatrix8559" />
    </filter>
    <filter
       style="color-interpolation-filters:sRGB"
       inkscape:label="Greyscale"
       id="filter8565">
      <feColorMatrix
         values="-10 -10 -10 5 0 -10 -10 -10 5 0 -10 -10 -10 5 0 0 0 0 1 0 "
         id="feColorMatrix8563" />
    </filter>
    <filter
       style="color-interpolation-filters:sRGB"
       inkscape:label="Greyscale"
       id="filter8569">
      <feColorMatrix
         values="-10 -10 -10 5 0 -10 -10 -10 5 0 -10 -10 -10 5 0 0 0 0 1 0 "
         id="feColorMatrix8567" />
    </filter>
    <filter
       style="color-interpolation-filters:sRGB"
       inkscape:label="Greyscale"
       id="filter8573">
      <feColorMatrix
         values="-10 -10 -10 5 0 -10 -10 -10 5 0 -10 -10 -10 5 0 0 0 0 1 0 "
         id="feColorMatrix8571" />
    </filter>
    <filter
       style="color-interpolation-filters:sRGB"
       inkscape:label="Greyscale"
       id="filter8577">
      <feColorMatrix
         values="-10 -10 -10 5 0 -10 -10 -10 5 0 -10 -10 -10 5 0 0 0 0 1 0 "
         id="feColorMatrix8575" />
    </filter>
    <filter
       style="color-interpolation-filters:sRGB"
       inkscape:label="Greyscale"
       id="filter8581">
      <feColorMatrix
         values="-10 -10 -10 5 0 -10 -10 -10 5 0 -10 -10 -10 5 0 0 0 0 1 0 "
         id="feColorMatrix8579" />
    </filter>
    <filter
       style="color-interpolation-filters:sRGB"
       inkscape:label="Greyscale"
       id="filter8585">
      <feColorMatrix
         values="-10 -10 -10 5 0 -10 -10 -10 5 0 -10 -10 -10 5 0 0 0 0 1 0 "
         id="feColorMatrix8583" />
    </filter>
    <filter
       style="color-interpolation-filters:sRGB"
       inkscape:label="Greyscale"
       id="filter8589">
      <feColorMatrix
         values="-10 -10 -10 5 0 -10 -10 -10 5 0 -10 -10 -10 5 0 0 0 0 1 0 "
         id="feColorMatrix8587" />
    </filter>
    <filter
       style="color-interpolation-filters:sRGB"
       inkscape:label="Greyscale"
       id="filter8593">
      <feColorMatrix
         values="-10 -10 -10 5 0 -10 -10 -10 5 0 -10 -10 -10 5 0 0 0 0 1 0 "
         id="feColorMatrix8591" />
    </filter>
    <filter
       style="color-interpolation-filters:sRGB"
       inkscape:label="Greyscale"
       id="filter8597">
      <feColorMatrix
         values="-10 -10 -10 5 0 -10 -10 -10 5 0 -10 -10 -10 5 0 0 0 0 1 0 "
         id="feColorMatrix8595" />
    </filter>
    <filter
       style="color-interpolation-filters:sRGB"
       inkscape:label="Greyscale"
       id="filter8601">
      <feColorMatrix
         values="-10 -10 -10 5 0 -10 -10 -10 5 0 -10 -10 -10 5 0 0 0 0 1 0 "
         id="feColorMatrix8599" />
    </filter>
    <filter
       style="color-interpolation-filters:sRGB"
       inkscape:label="Greyscale"
       id="filter8605">
      <feColorMatrix
         values="-10 -10 -10 5 0 -10 -10 -10 5 0 -10 -10 -10 5 0 0 0 0 1 0 "
         id="feColorMatrix8603" />
    </filter>
    <filter
       style="color-interpolation-filters:sRGB"
       inkscape:label="Greyscale"
       id="filter8609">
      <feColorMatrix
         values="-10 -10 -10 5 0 -10 -10 -10 5 0 -10 -10 -10 5 0 0 0 0 1 0 "
         id="feColorMatrix8607" />
    </filter>
    <filter
       style="color-interpolation-filters:sRGB"
       inkscape:label="Greyscale"
       id="filter8613">
      <feColorMatrix
         values="-10 -10 -10 5 0 -10 -10 -10 5 0 -10 -10 -10 5 0 0 0 0 1 0 "
         id="feColorMatrix8611" />
    </filter>
    <filter
       style="color-interpolation-filters:sRGB"
       inkscape:label="Greyscale"
       id="filter8617">
      <feColorMatrix
         values="-10 -10 -10 5 0 -10 -10 -10 5 0 -10 -10 -10 5 0 0 0 0 1 0 "
         id="feColorMatrix8615" />
    </filter>
    <filter
       style="color-interpolation-filters:sRGB"
       inkscape:label="Greyscale"
       id="filter8621">
      <feColorMatrix
         values="-10 -10 -10 5 0 -10 -10 -10 5 0 -10 -10 -10 5 0 0 0 0 1 0 "
         id="feColorMatrix8619" />
    </filter>
    <filter
       style="color-interpolation-filters:sRGB"
       inkscape:label="Greyscale"
       id="filter8625">
      <feColorMatrix
         values="-10 -10 -10 5 0 -10 -10 -10 5 0 -10 -10 -10 5 0 0 0 0 1 0 "
         id="feColorMatrix8623" />
    </filter>
    <filter
       style="color-interpolation-filters:sRGB"
       inkscape:label="Greyscale"
       id="filter8629">
      <feColorMatrix
         values="-10 -10 -10 5 0 -10 -10 -10 5 0 -10 -10 -10 5 0 0 0 0 1 0 "
         id="feColorMatrix8627" />
    </filter>
    <filter
       style="color-interpolation-filters:sRGB"
       inkscape:label="Greyscale"
       id="filter8633">
      <feColorMatrix
         values="-10 -10 -10 5 0 -10 -10 -10 5 0 -10 -10 -10 5 0 0 0 0 1 0 "
         id="feColorMatrix8631" />
    </filter>
    <filter
       style="color-interpolation-filters:sRGB"
       inkscape:label="Greyscale"
       id="filter8637">
      <feColorMatrix
         values="-10 -10 -10 5 0 -10 -10 -10 5 0 -10 -10 -10 5 0 0 0 0 1 0 "
         id="feColorMatrix8635" />
    </filter>
    <filter
       style="color-interpolation-filters:sRGB"
       inkscape:label="Greyscale"
       id="filter8641">
      <feColorMatrix
         values="-10 -10 -10 5 0 -10 -10 -10 5 0 -10 -10 -10 5 0 0 0 0 1 0 "
         id="feColorMatrix8639" />
    </filter>
    <filter
       style="color-interpolation-filters:sRGB"
       inkscape:label="Greyscale"
       id="filter8645">
      <feColorMatrix
         values="-10 -10 -10 5 0 -10 -10 -10 5 0 -10 -10 -10 5 0 0 0 0 1 0 "
         id="feColorMatrix8643" />
    </filter>
    <filter
       style="color-interpolation-filters:sRGB"
       inkscape:label="Greyscale"
       id="filter8649">
      <feColorMatrix
         values="-10 -10 -10 5 0 -10 -10 -10 5 0 -10 -10 -10 5 0 0 0 0 1 0 "
         id="feColorMatrix8647" />
    </filter>
    <filter
       style="color-interpolation-filters:sRGB"
       inkscape:label="Greyscale"
       id="filter8653">
      <feColorMatrix
         values="-10 -10 -10 5 0 -10 -10 -10 5 0 -10 -10 -10 5 0 0 0 0 1 0 "
         id="feColorMatrix8651" />
    </filter>
    <filter
       style="color-interpolation-filters:sRGB"
       inkscape:label="Greyscale"
       id="filter8657">
      <feColorMatrix
         values="-10 -10 -10 5 0 -10 -10 -10 5 0 -10 -10 -10 5 0 0 0 0 1 0 "
         id="feColorMatrix8655" />
    </filter>
    <filter
       style="color-interpolation-filters:sRGB"
       inkscape:label="Greyscale"
       id="filter8661">
      <feColorMatrix
         values="-10 -10 -10 5 0 -10 -10 -10 5 0 -10 -10 -10 5 0 0 0 0 1 0 "
         id="feColorMatrix8659" />
    </filter>
    <filter
       style="color-interpolation-filters:sRGB"
       inkscape:label="Greyscale"
       id="filter8665">
      <feColorMatrix
         values="-10 -10 -10 5 0 -10 -10 -10 5 0 -10 -10 -10 5 0 0 0 0 1 0 "
         id="feColorMatrix8663" />
    </filter>
    <filter
       style="color-interpolation-filters:sRGB"
       inkscape:label="Greyscale"
       id="filter8669">
      <feColorMatrix
         values="-10 -10 -10 5 0 -10 -10 -10 5 0 -10 -10 -10 5 0 0 0 0 1 0 "
         id="feColorMatrix8667" />
    </filter>
    <filter
       style="color-interpolation-filters:sRGB"
       inkscape:label="Greyscale"
       id="filter8673">
      <feColorMatrix
         values="-10 -10 -10 5 0 -10 -10 -10 5 0 -10 -10 -10 5 0 0 0 0 1 0 "
         id="feColorMatrix8671" />
    </filter>
    <filter
       style="color-interpolation-filters:sRGB"
       inkscape:label="Greyscale"
       id="filter8677">
      <feColorMatrix
         values="-10 -10 -10 5 0 -10 -10 -10 5 0 -10 -10 -10 5 0 0 0 0 1 0 "
         id="feColorMatrix8675" />
    </filter>
    <filter
       style="color-interpolation-filters:sRGB"
       inkscape:label="Greyscale"
       id="filter8681">
      <feColorMatrix
         values="-10 -10 -10 5 0 -10 -10 -10 5 0 -10 -10 -10 5 0 0 0 0 1 0 "
         id="feColorMatrix8679" />
    </filter>
    <filter
       style="color-interpolation-filters:sRGB"
       inkscape:label="Greyscale"
       id="filter8685">
      <feColorMatrix
         values="-10 -10 -10 5 0 -10 -10 -10 5 0 -10 -10 -10 5 0 0 0 0 1 0 "
         id="feColorMatrix8683" />
    </filter>
    <filter
       style="color-interpolation-filters:sRGB"
       inkscape:label="Greyscale"
       id="filter8689">
      <feColorMatrix
         values="-10 -10 -10 5 0 -10 -10 -10 5 0 -10 -10 -10 5 0 0 0 0 1 0 "
         id="feColorMatrix8687" />
    </filter>
    <filter
       style="color-interpolation-filters:sRGB"
       inkscape:label="Greyscale"
       id="filter8693">
      <feColorMatrix
         values="-10 -10 -10 5 0 -10 -10 -10 5 0 -10 -10 -10 5 0 0 0 0 1 0 "
         id="feColorMatrix8691" />
    </filter>
    <filter
       style="color-interpolation-filters:sRGB"
       inkscape:label="Greyscale"
       id="filter8697">
      <feColorMatrix
         values="-10 -10 -10 5 0 -10 -10 -10 5 0 -10 -10 -10 5 0 0 0 0 1 0 "
         id="feColorMatrix8695" />
    </filter>
    <filter
       style="color-interpolation-filters:sRGB"
       inkscape:label="Greyscale"
       id="filter8701">
      <feColorMatrix
         values="-10 -10 -10 5 0 -10 -10 -10 5 0 -10 -10 -10 5 0 0 0 0 1 0 "
         id="feColorMatrix8699" />
    </filter>
    <filter
       style="color-interpolation-filters:sRGB"
       inkscape:label="Greyscale"
       id="filter8705">
      <feColorMatrix
         values="-10 -10 -10 5 0 -10 -10 -10 5 0 -10 -10 -10 5 0 0 0 0 1 0 "
         id="feColorMatrix8703" />
    </filter>
  </defs>
  <sodipodi:namedview
     inkscape:document-rotation="0"
     pagecolor="#ffffff"
     bordercolor="#666666"
     borderopacity="1"
     objecttolerance="10"
     gridtolerance="10"
     guidetolerance="10"
     inkscape:pageopacity="0"
     inkscape:pageshadow="2"
     inkscape:window-width="2560"
     inkscape:window-height="1377"
     id="namedview1203"
     showgrid="false"
     inkscape:zoom="4"
     inkscape:cx="112.375"
     inkscape:cy="51.375"
     inkscape:window-x="1072"
     inkscape:window-y="461"
     inkscape:window-maximized="1"
     inkscape:current-layer="svg1201"
     units="mm"
     scale-x="8.5"
     inkscape:pagecheckerboard="true"
     inkscape:showpageshadow="2"
     inkscape:deskcolor="#d1d1d1"
     shape-rendering="crispEdges" />
  <g
     id="g9116"
     transform="translate(15.769089,13.642734)"
     style="fill:#808080;stroke:#ffffff;stroke-width:17;stroke-miterlimit:4;stroke-dasharray:none;stroke-opacity:1">
    <path
       id="path8984"
       d="m 391.07109,1037.9446 c -4.6199,-3.5855 -28.12999,-20.4811 -52.24463,-37.5457 -24.11464,-17.06459 -69.93953,-49.78678 -101.83309,-72.71595 l -57.98829,-41.68939 -10.27257,-37.29922 c -26.03932,-94.5475 -44.88702,-165.78512 -44.88702,-169.65701 0,-2.33158 24.30156,-55.60784 54.00346,-118.39167 l 54.00347,-114.15242 28.73592,-27.62417 c 23.86662,-22.94325 54.04948,-44.78995 56.86828,-41.16192 0.38346,0.49355 2.81726,18.71815 5.40843,40.49912 2.59118,21.78096 8.56954,70.15168 13.28525,107.49048 4.71571,37.3388 12.31314,97.8022 16.88317,134.3631 21.55113,172.41202 26.01312,208.19091 33.77707,270.84431 4.57902,36.95172 9.74327,77.17684 11.4761,89.38914 1.73283,12.2122 2.70818,22.6465 2.16744,23.1873 -0.54074,0.5407 -4.76309,-1.9505 -9.38299,-5.536 z"
       style="fill:#808080;stroke:#ffffff;stroke-width:17;stroke-linecap:round;stroke-linejoin:round;stroke-miterlimit:4;stroke-dasharray:none;stroke-opacity:1;paint-order:normal" />
    <path
       id="path9038"
       d="M 109.75052,830.8801 C 77.847477,804.9598 52.013675,782.84153 52.342071,781.7284 c 0.328396,-1.11313 14.68153,-23.47257 31.895852,-49.68764 l 31.298767,-47.66377 26.62089,95.42593 c 14.64148,52.48427 26.39084,96.05123 26.10968,96.81547 -0.28117,0.76425 -26.6137,-19.81799 -58.51674,-45.73829 z"
       style="fill:#808080;stroke:#ffffff;stroke-width:17;stroke-linecap:round;stroke-linejoin:round;stroke-miterlimit:4;stroke-dasharray:none;stroke-opacity:1;paint-order:normal" />
    <path
       id="path9040"
       d="m 38.066043,890.06363 c -2.223185,-81.39505 -2.156294,-82.94815 3.915391,-90.90853 2.880832,-3.77697 5.957869,-6.86722 6.83786,-6.86722 1.321632,0 92.358906,70.21806 110.266606,85.04986 l 5.33117,4.41547 -59.33633,27.15357 c -32.634976,14.93447 -60.766399,27.69853 -62.514268,28.36459 -2.827875,1.07761 -3.323622,-4.12258 -4.500429,-47.20774 z"
       style="fill:#808080;stroke:#ffffff;stroke-width:17;stroke-linecap:round;stroke-linejoin:round;stroke-miterlimit:4;stroke-dasharray:none;stroke-opacity:1;paint-order:normal" />
    <path
       id="path9042"
       d="m 29.770467,965.68903 c 2.47835,-18.76967 0.233799,-17.20022 70.952143,-49.61138 35.73853,-16.37944 65.57368,-29.7808 66.30032,-29.7808 2.02102,0 31.78581,20.6189 30.95874,21.44598 -0.39893,0.39892 -38.71819,15.93677 -85.15392,34.52856 l -84.428599,33.80323 z"
       style="fill:#808080;stroke:#ffffff;stroke-width:17;stroke-linecap:round;stroke-linejoin:round;stroke-miterlimit:4;stroke-dasharray:none;stroke-opacity:1;paint-order:normal" />
    <path
       id="path9044"
       d="M 37.889404,781.95528 C 36.405999,768.59096 22.742221,579.82742 22.742221,572.69867 c 0,-3.6585 10.622081,12.25039 35.165796,52.66849 19.341187,31.85068 36.883384,60.70149 38.98266,64.11291 l 3.816863,6.20259 -30.187016,47.80256 c -16.602859,26.29142 -30.470478,48.10338 -30.816931,48.47101 -0.346451,0.36766 -1.162837,-4.13277 -1.814189,-10.00095 z"
       style="fill:#808080;stroke:#ffffff;stroke-width:17;stroke-linecap:round;stroke-linejoin:round;stroke-miterlimit:4;stroke-dasharray:none;stroke-opacity:1;paint-order:normal" />
    <path
       id="path9046"
       d="M 100.09666,683.00851 C 85.804316,660.97784 24.800003,559.54143 25.451303,558.89013 c 1.797935,-1.79793 18.186011,2.27435 21.097461,5.24253 1.757817,1.79207 18.850786,21.45702 37.984371,43.6999 22.011175,25.58808 36.152915,40.44159 38.503675,40.44159 2.04343,0 3.71533,0.47251 3.71533,1.05003 0,1.49144 -13.26723,27.649 -17.82508,35.14378 l -3.81443,6.27233 z"
       style="fill:#808080;stroke:#ffffff;stroke-width:17;stroke-linecap:round;stroke-linejoin:round;stroke-miterlimit:4;stroke-dasharray:none;stroke-opacity:1;paint-order:normal" />
    <path
       id="path9048"
       d="M 362.32357,680.72828 C 341.75271,516.11481 325.24364,381.10944 325.63674,380.71634 c 0.3931,-0.3931 12.893,5.7424 27.77755,13.63446 l 27.06282,14.34919 1.12111,14.27702 c 1.458,18.56725 19.54621,555.62919 18.74068,556.43472 -0.33757,0.33757 -17.44447,-134.06998 -38.01533,-298.68345 z"
       style="fill:#808080;stroke:#ffffff;stroke-width:17;stroke-linecap:round;stroke-linejoin:round;stroke-miterlimit:4;stroke-dasharray:none;stroke-opacity:1;paint-order:normal" />
    <path
       id="path9050"
       d="M 407.13572,965.30439 C 406.4237,954.15268 392.80372,505.3629 392.80999,493.25936 l 0.006,-12.00114 42.11165,-25.70881 c 23.16141,-14.13984 42.5023,-25.31815 42.97977,-24.84069 0.47746,0.47746 -9.86291,9.34617 -22.9786,19.70823 -19.9207,15.73838 -23.8715,19.75432 -23.9973,24.39295 -0.24506,9.03617 -21.99413,473.48426 -22.7346,485.49401 -0.37305,6.05058 -0.85069,8.30079 -1.06141,5.00048 z"
       style="fill:#808080;stroke:#ffffff;stroke-width:17;stroke-linecap:round;stroke-linejoin:round;stroke-miterlimit:4;stroke-dasharray:none;stroke-opacity:1;paint-order:normal" />
    <path
       id="path9052"
       d="m 390.11021,464.75665 c -2.84235,-27.61387 -7.97616,-110.53477 -6.90948,-111.60144 0.64537,-0.64538 19.94077,-6.07488 42.87867,-12.06557 22.9379,-5.99069 42.77383,-11.28183 44.07984,-11.75809 2.56469,-0.93526 44.88269,62.68771 45.35031,68.18188 0.19331,2.27123 -18.5624,14.89986 -60.72612,40.88821 -33.5532,20.68111 -61.56462,37.65918 -62.24761,37.72906 -0.68298,0.0699 -1.7745,-5.04845 -2.42561,-11.37405 z"
       style="fill:#808080;stroke:#ffffff;stroke-width:17;stroke-linecap:round;stroke-linejoin:round;stroke-miterlimit:4;stroke-dasharray:none;stroke-opacity:1;paint-order:normal" />
    <path
       id="path9054"
       d="m 381.73039,345.58688 c -0.43947,-1.288 -9.44027,-67.59805 -20.00177,-147.35566 C 339.77787,32.465099 340.03328,42.162662 357.35637,32.22765 c 5.73032,-3.286411 10.99031,-5.98374 11.68886,-5.994063 4.72032,-0.06976 8.16762,15.850318 18.40339,84.989343 l 11.25258,76.00724 14.96507,37.52316 c 13.00701,32.61355 17.6262,41.58645 35.30359,68.5781 11.18619,17.08021 19.99568,31.38236 19.57666,31.78254 -0.41902,0.40019 -19.94428,5.69722 -43.38947,11.77118 -29.56508,7.65943 -42.87247,10.32594 -43.42666,8.70173 z"
       style="fill:#808080;stroke:#ffffff;stroke-width:17;stroke-linecap:round;stroke-linejoin:round;stroke-miterlimit:4;stroke-dasharray:none;stroke-opacity:1;paint-order:normal" />
    <path
       id="path9056"
       d="m 353.27375,388.76221 c -13.47629,-7.37331 -24.50234,-13.94241 -24.50234,-14.59801 0,-0.65559 10.26489,-5.28601 22.81087,-10.28982 l 22.81087,-9.09784 2.31108,16.23636 c 1.2711,8.92999 2.82236,19.61167 3.44725,23.73707 0.6249,4.12539 0.34607,7.48216 -0.61961,7.45948 -0.96568,-0.0227 -12.78184,-6.07393 -26.25812,-13.44724 z"
       style="fill:#808080;stroke:#ffffff;stroke-width:17;stroke-linecap:round;stroke-linejoin:round;stroke-miterlimit:4;stroke-dasharray:none;stroke-opacity:1;paint-order:normal" />
    <path
       id="path9058"
       d="m 472.45623,321.743 c -42.38424,-64.53891 -46.25351,-71.93254 -63.06675,-120.51149 -5.50588,-15.9083 -13.28399,-57.83612 -22.6346,-122.011637 -3.56533,-24.469732 -7.7183,-46.07908 -9.35515,-48.678171 -1.61897,-2.570685 -2.5849,-5.032649 -2.14652,-5.47103 0.43838,-0.438381 6.10886,0.314779 12.60107,1.673688 l 11.80401,2.470743 109.07034,102.753417 c 59.98869,56.51437 113.93093,107.51414 119.87166,113.33283 l 10.80133,10.57941 -61.65334,64.1841 c -33.90934,35.30127 -62.23599,64.18411 -62.94812,64.18411 -0.71213,0 -19.7669,-28.12769 -42.34393,-62.50597 z"
       style="fill:#808080;stroke:#ffffff;stroke-width:17;stroke-linecap:round;stroke-linejoin:round;stroke-miterlimit:4;stroke-dasharray:none;stroke-opacity:1;paint-order:normal" />
    <path
       sodipodi:nodetypes="ssssssss"
       id="path9060"
       d="M 742.8109,401.1972 C 578.49849,389.40558 524.83635,385.11035 525.278,383.78536 c 0.28272,-0.84812 44.97051,-47.51679 99.30622,-103.70814 66.35336,-68.61941 99.84839,-101.89628 102.00881,-101.3444 1.76915,0.45193 26.84388,5.65715 55.72164,11.56715 45.95792,9.40555 52.50501,11.20844 52.50501,14.45846 0,11.3833 -21.37645,155.56642 -30.27963,193.74189 -1.24056,5.31941 -7.30136,6.6028 -61.72915,2.69688 z"
       style="fill:#808080;stroke:#ffffff;stroke-width:17;stroke-linecap:round;stroke-linejoin:round;stroke-miterlimit:4;stroke-dasharray:none;stroke-opacity:1;paint-order:normal" />
    <path
       sodipodi:nodetypes="sssssss"
       id="path9062"
       d="m 883.82435,421.52488 c -52.82874,-12.60726 -64.83549,-16.38685 -65.25014,-19.88839 -0.52427,-4.42714 32.09788,-193.41236 33.82331,-195.13779 1.22621,-1.22621 71.99093,16.62846 74.01511,18.65264 1.2613,1.2613 24.13021,194.57771 24.32228,205.60206 0.07,4.01618 -0.84875,5.44534 -3.4045,5.29601 -1.92519,-0.11249 -30.50291,-6.64854 -63.50606,-14.52453 z"
       style="fill:#808080;stroke:#ffffff;stroke-width:17;stroke-linecap:round;stroke-linejoin:round;stroke-miterlimit:4;stroke-dasharray:none;stroke-opacity:1;paint-order:normal" />
    <path
       id="path9064"
       d="m 833.00422,195.97955 c -24.65075,-5.29447 -45.53883,-9.87905 -46.41794,-10.18794 -0.8791,-0.30889 7.36012,-17.7896 18.30939,-38.84602 l 19.90777,-38.28439 17.34481,-3.21738 c 9.53964,-1.76957 17.6811,-2.8811 18.09212,-2.47008 1.54563,1.54563 18.65299,94.43771 18.12997,98.44476 -0.53683,4.11284 -1.3443,4.01603 -45.36612,-5.43895 z"
       style="fill:#808080;stroke:#ffffff;stroke-width:17;stroke-linecap:round;stroke-linejoin:round;stroke-miterlimit:4;stroke-dasharray:none;stroke-opacity:1;paint-order:normal" />
    <path
       sodipodi:nodetypes="ssssss"
       id="path9066"
       d="m 673.61359,662.05896 c -6.12767,-9.59723 -154.28993,-270.91831 -153.86683,-271.38248 0.58687,-0.64383 280.27974,18.1183 281.01105,18.84961 0.88252,0.88252 -46.45413,245.74821 -47.74264,247.19116 -1.92762,2.15871 -26.13251,5.2222 -53.41514,6.76051 -19.60748,1.10552 -24.5469,0.83586 -25.98644,-1.4188 z"
       style="fill:#808080;stroke:#ffffff;stroke-width:17;stroke-linecap:round;stroke-linejoin:round;stroke-miterlimit:4;stroke-dasharray:none;stroke-opacity:1;paint-order:normal" />
    <path
       sodipodi:nodetypes="sssssss"
       id="path9068"
       d="m 772.31371,668.19813 c -6.3256,-3.29273 -11.50109,-6.2516 -11.50109,-6.57529 0,-1.87484 54.84487,-249.24146 55.45064,-249.84723 0.86346,-0.86347 124.06701,27.84902 128.73969,30.01091 2.55133,1.18042 -11.63903,24.00365 -72.42093,116.47904 -73.24351,111.43487 -75.7988,115.02509 -82.1806,115.46516 -4.13651,0.28524 -10.86481,-1.77277 -18.08771,-5.53259 z"
       style="fill:#808080;stroke:#ffffff;stroke-width:17;stroke-linecap:round;stroke-linejoin:round;stroke-miterlimit:4;stroke-dasharray:none;stroke-opacity:1;paint-order:normal" />
    <path
       id="path9076"
       d="m 603.30668,1015.3092 c 0.59607,-3.3004 13.04431,-82.1652 27.66277,-175.25524 l 26.57901,-169.25463 24.12945,-1.28643 c 13.27121,-0.70754 33.39158,-1.85058 44.71195,-2.54009 l 20.58249,-1.25366 -4.24611,10.77936 C 724.07597,723.845 604.19065,1019.5269 603.32676,1020.3096 c -0.60711,0.5501 -0.61614,-1.7001 -0.0201,-5.0004 z"
       style="fill:#808080;stroke:#ffffff;stroke-width:17;stroke-linecap:round;stroke-linejoin:round;stroke-miterlimit:4;stroke-dasharray:none;stroke-opacity:1;paint-order:normal" />
    <path
       id="path9078"
       d="m 656.8027,907.24505 c 0,-2.40889 96.22689,-235.58832 98.07348,-237.65415 1.18464,-1.32529 8.06513,0.88236 11.5053,3.69154 0.56041,0.45762 -107.27293,233.23192 -108.79483,234.84983 -0.43117,0.45837 -0.78395,0.0591 -0.78395,-0.88722 z"
       style="fill:#808080;stroke:#ffffff;stroke-width:17;stroke-linecap:round;stroke-linejoin:round;stroke-miterlimit:4;stroke-dasharray:none;stroke-opacity:1;paint-order:normal" />
    <path
       id="path9080"
       d="M 578.21825,945.75532 C 570.88162,903.70227 560.23301,841.2882 554.55466,807.05738 l -10.32427,-62.23786 25.71051,-66.60978 25.7105,-66.60978 26.33516,27.31185 c 14.48433,15.02151 26.74683,28.89874 27.25,30.83828 0.86244,3.32442 -55.22612,350.01241 -56.89667,351.68301 -0.43028,0.4302 -6.78502,-33.6247 -14.12164,-75.67778 z"
       style="fill:#808080;stroke:#ffffff;stroke-width:17;stroke-linecap:round;stroke-linejoin:round;stroke-miterlimit:4;stroke-dasharray:none;stroke-opacity:1;paint-order:normal" />
    <path
       id="path9082"
       d="m 409.31746,1053.8128 c -1.23747,-1.5853 -1.30972,-8.7214 -0.19744,-19.5018 0.96479,-9.3509 7.60548,-138.0632 14.75709,-286.02731 7.15162,-147.96412 13.20583,-269.62442 13.45382,-270.35625 0.24798,-0.73182 8.40208,1.96844 18.12021,6.00058 l 17.66933,7.33115 58.77538,59.57995 58.77537,59.57996 -3.43774,8.6853 c -99.61688,251.67751 -173.7387,437.15382 -174.70919,437.17772 -0.69038,0.017 -2.13345,-1.0941 -3.20683,-2.4693 z"
       style="fill:#808080;stroke:#ffffff;stroke-width:17;stroke-linecap:round;stroke-linejoin:round;stroke-miterlimit:4;stroke-dasharray:none;stroke-opacity:1;paint-order:normal" />
    <path
       id="path9084"
       d="m 535.06795,970.15939 -52.66708,-65.87951 28.66867,-73.07761 c 15.76777,-40.19269 28.87525,-72.36655 29.12773,-71.49748 1.391,4.78796 48.57772,275.29411 48.10448,275.76741 -0.3117,0.3116 -24.26691,-29.0791 -53.2338,-65.31281 z"
       style="fill:#808080;stroke:#ffffff;stroke-width:17;stroke-linecap:round;stroke-linejoin:round;stroke-miterlimit:4;stroke-dasharray:none;stroke-opacity:1;paint-order:normal" />
    <path
       id="path9086"
       d="m 564.9025,575.41956 -88.89991,-88.95843 4.8919,-6.75486 c 25.12489,-34.69307 45.08238,-61.36387 45.94842,-61.40458 1.34437,-0.0632 135.41889,237.95728 136.30128,241.9736 0.42742,1.94541 -1.09896,3.19409 -4.3413,3.5515 -4.20573,0.46359 -19.12977,-13.58739 -93.90039,-88.40723 z"
       style="fill:#808080;stroke:#ffffff;stroke-width:17;stroke-linecap:round;stroke-linejoin:round;stroke-miterlimit:4;stroke-dasharray:none;stroke-opacity:1;paint-order:normal" />
    <path
       id="path9088"
       d="m 453.52644,475.81722 -14.25824,-6.10924 6.25747,-5.34266 c 18.4707,-15.77038 73.07171,-60.11445 74.01913,-60.11445 0.6073,0 2.08082,1.82488 3.27449,4.05527 1.88843,3.52856 -1.15501,8.58356 -23.43187,38.91925 -14.0812,19.17519 -26.95231,34.82733 -28.60246,34.78252 -1.65016,-0.0448 -9.4165,-2.83061 -17.25852,-6.19069 z"
       style="fill:#808080;stroke:#ffffff;stroke-width:17;stroke-linecap:round;stroke-linejoin:round;stroke-miterlimit:4;stroke-dasharray:none;stroke-opacity:1;paint-order:normal" />
  </g>
</svg>
