<?xml version="1.0" encoding="UTF-8" standalone="no"?>
<!-- Created with Inkscape (http://www.inkscape.org/) -->

<svg
   width="130"
   height="130"
   viewBox="0 0 130 130"
   version="1.1"
   id="svg8"
   inkscape:version="1.2 (dc2aedaf03, 2022-05-15)"
   sodipodi:docname="streamlabs.svg"
   xmlns:inkscape="http://www.inkscape.org/namespaces/inkscape"
   xmlns:sodipodi="http://sodipodi.sourceforge.net/DTD/sodipodi-0.dtd"
   xmlns="http://www.w3.org/2000/svg"
   xmlns:svg="http://www.w3.org/2000/svg"
   xmlns:rdf="http://www.w3.org/1999/02/22-rdf-syntax-ns#"
   xmlns:cc="http://creativecommons.org/ns#"
   xmlns:dc="http://purl.org/dc/elements/1.1/">
  <defs
     id="defs2">
    <path
       d="m 70.1,264.3 v 24.9 h 19.6 l 4.7,20 H 70.1 v 3 h 12.8 l -4.2,11.2 1.2,12.5 h -9.8 v 43.6 L 120,350.7 V 293.1 Z M 83,323.5 v 0 l 11.5,-7.5 13.1,9.9 -17.8,31.1 h -7.1 l -8.5,-7.8 v -4 l 8.8,-8.4 z"
       id="SVGID_1_"
       inkscape:connector-curvature="0" />
    <path
       d="m 70.1,264.3 -49.9,28.8 v 57.6 l 49.9,28.8 V 336 h -9.7 l 1.3,-12.5 -4.3,-11.2 h 12.7 v -3 H 45.9 l 4.6,-20 h 19.7 v -25 z m -37.5,61.6 v 0 l 13.2,-9.8 11.6,7.4 v 13.3 l 8.8,8.4 v 4 l -8.5,7.9 h -7.2 z"
       id="SVGID_3_"
       inkscape:connector-curvature="0" />
  </defs>
  <sodipodi:namedview
     id="base"
     pagecolor="#ffffff"
     bordercolor="#666666"
     borderopacity="1.0"
     inkscape:pageopacity="0.0"
     inkscape:pageshadow="2"
     inkscape:zoom="4"
     inkscape:cx="155.625"
     inkscape:cy="127.375"
     inkscape:document-units="mm"
     inkscape:current-layer="svg8"
     showgrid="false"
     fit-margin-top="0"
     fit-margin-left="0"
     fit-margin-right="0"
     fit-margin-bottom="0"
     inkscape:window-width="2560"
     inkscape:window-height="1377"
     inkscape:window-x="1072"
     inkscape:window-y="461"
     inkscape:window-maximized="1"
     inkscape:showpageshadow="2"
     inkscape:pagecheckerboard="true"
     inkscape:deskcolor="#d1d1d1" />
  <metadata
     id="metadata5">
    <rdf:RDF>
      <cc:Work
         rdf:about="">
        <dc:format>image/svg+xml</dc:format>
        <dc:type
           rdf:resource="http://purl.org/dc/dcmitype/StillImage" />
      </cc:Work>
    </rdf:RDF>
  </metadata>
  <g
     id="g15239"
     style="stroke-width:3.71137;"
     transform="matrix(1.0183642,0,0,1.0183642,-1.1936788,1.0952292e-6)">
    <path
       id="path905"
       style="stroke-width:3.71137;"
       d="m 68.919922,27.636719 c -13.979907,0 -20.970964,-8.64e-4 -26.310547,2.703125 -4.696905,2.378373 -8.515,6.173932 -10.908203,10.841797 -2.720649,5.306663 -2.720703,12.252866 -2.720703,26.146484 v 22.681641 c 0,7.939378 1.9e-5,11.909544 1.554687,14.941404 1.367545,2.66774 3.5485,4.83622 6.232422,6.19531 3.051126,1.5443 7.04669,1.54493 15.035156,1.54493 h 37.085938 c 13.979818,0 20.969448,6e-5 26.308598,-2.70313 4.69725,-2.37886 8.51649,-6.17348 10.91015,-10.841796 2.72082,-5.306222 2.7207,-12.252772 2.7207,-26.146484 v -5.671875 c 0,-13.893618 1.2e-4,-20.839822 -2.7207,-26.146484 -2.39366,-4.667866 -6.2129,-8.463424 -10.91015,-10.841797 -5.33915,-2.70399 -12.32878,-2.703125 -26.308598,-2.703125 z m 2.857422,35.419922 c 3.938866,0 7.130859,3.173411 7.130859,7.08789 v 14.175781 c 0,0.489326 -0.04953,0.966332 -0.144531,1.427735 -0.0013,0.0065 -0.0026,0.01308 -0.0039,0.01953 -0.0018,0.0085 -0.0041,0.01689 -0.0059,0.02539 -0.04266,0.200506 -0.09498,0.39794 -0.154297,0.591797 -0.0043,0.01419 -0.0073,0.02882 -0.01172,0.04297 -0.01101,0.03552 -0.02361,0.07019 -0.03516,0.105469 -0.04954,0.1499 -0.104917,0.29806 -0.164062,0.443359 -0.03996,0.09896 -0.08268,0.196271 -0.126953,0.292969 -0.03799,0.08238 -0.0781,0.163495 -0.119141,0.244141 -0.07399,0.146396 -0.15265,0.289308 -0.236328,0.429687 -0.0212,0.03536 -0.04265,0.07051 -0.06445,0.105469 -0.07172,0.11567 -0.148469,0.226753 -0.226563,0.337891 -0.215621,0.305206 -0.454645,0.592129 -0.714843,0.859375 -0.0654,0.06752 -0.131191,0.132363 -0.199219,0.197265 -0.2483,0.235757 -0.51445,0.453895 -0.794922,0.652344 -1.168094,0.830299 -2.589094,1.332031 -4.134766,1.332031 -1.569127,0 -3.005903,-0.519653 -4.183593,-1.373046 -0.236196,-0.170695 -0.46273,-0.355162 -0.675782,-0.552735 -0.116881,-0.108696 -0.228584,-0.219717 -0.33789,-0.335937 -0.207422,-0.219844 -0.401949,-0.452513 -0.580078,-0.697266 -0.513251,-0.707795 -0.901888,-1.506899 -1.125,-2.376953 -0.05307,-0.206948 -0.09657,-0.417083 -0.13086,-0.630859 -0.006,-0.03711 -0.01212,-0.07403 -0.01758,-0.111329 -0.02617,-0.181759 -0.04658,-0.364844 -0.05859,-0.550781 -0.0057,-0.08486 -0.0091,-0.170205 -0.01172,-0.255859 -0.0019,-0.06812 -0.0098,-0.134542 -0.0098,-0.203125 V 70.164062 c 0,-0.05276 0.0067,-0.103765 0.0078,-0.15625 0.0026,-0.137734 0.0091,-0.274451 0.01953,-0.410156 0.0073,-0.09163 0.01461,-0.182824 0.02539,-0.273437 0.02244,-0.193419 0.05206,-0.383909 0.08984,-0.572266 0.0015,-0.0071 0.0024,-0.01436 0.0039,-0.02148 9.2e-4,-0.0045 0.001,-0.0092 0.002,-0.01367 0.665021,-3.229815 3.541765,-5.660156 6.988282,-5.660156 z m 28.523436,0.01953 c 3.93861,0 7.13086,3.17341 7.13086,7.08789 v 14.175782 c 0,3.914606 -3.19225,7.08789 -7.13086,7.08789 -3.9395,0 -7.132811,-3.173284 -7.132811,-7.08789 V 70.164062 c 0,-3.914479 3.193311,-7.08789 7.132811,-7.087891 z" />
    <path
       id="path907"
       d="M 53.887492,6.2140105 C 54.373531,10.098685 51.598944,13.63938 47.6902,14.122527 45.535556,14.388565 43.804457,14.751036 42.272252,15.225573 29.964946,19.037041 20.327569,28.615026 16.49246,40.846434 16.014982,42.36928 15.65045,44.089611 15.382464,46.231023 14.896425,50.115624 11.333667,52.873134 7.4249618,52.390102 3.5162087,51.906945 0.7415963,48.366261 1.227677,44.481586 1.5767716,41.691684 2.0934524,39.119898 2.8744498,36.629098 8.1041449,19.94989 21.245979,6.8889925 38.028663,1.691545 c 2.506338,-0.7761705 5.09398,-1.2896625 7.901198,-1.6366245 3.908833,-0.4830945 7.471501,2.2744365 7.957631,6.15909 z"
       inkscape:connector-curvature="0"
       style="stroke-width:3.71137;" />
  </g>
  <style
     id="style815"
     type="text/css"></style>
</svg>
